<svg width="70" height="70" viewBox="0 0 70 70" fill="none" xmlns="http://www.w3.org/2000/svg">
<g clip-path="url(#clip0_0_97)">
<path d="M70 35C70 15.67 54.33 0 35 0C15.67 0 0 15.67 0 35C0 52.4692 12.7989 66.9491 29.5313 69.5748V45.1172H20.6445V35H29.5313V27.2891C29.5313 18.5172 34.7566 13.6719 42.7513 13.6719C46.5794 13.6719 50.5859 14.3555 50.5859 14.3555V22.9688H46.1727C41.825 22.9688 40.4688 25.6669 40.4688 28.4375V35H50.1758L48.624 45.1172H40.4688V69.5748C57.2011 66.9491 70 52.4692 70 35Z" fill="#1877F2"/>
<path d="M48.624 45.1172L50.1758 35H40.4688V28.4375C40.4688 25.6697 41.825 22.9688 46.1727 22.9688H50.5859V14.3555C50.5859 14.3555 46.5808 13.6719 42.7513 13.6719C34.7566 13.6719 29.5313 18.5172 29.5313 27.2891V35H20.6445V45.1172H29.5313V69.5748C33.155 70.1418 36.845 70.1418 40.4688 69.5748V45.1172H48.624Z" fill="white"/>
</g>
<defs>
<clipPath id="clip0_0_97">
<rect width="70" height="70" fill="white"/>
</clipPath>
</defs>
</svg>
