<svg width="71" height="70" viewBox="0 0 71 70" fill="none" xmlns="http://www.w3.org/2000/svg">
<path d="M35.6853 6.30273C45.0369 6.30273 46.1443 6.34375 49.822 6.50781C53.24 6.6582 55.0857 7.23242 56.3162 7.71094C57.9431 8.33984 59.1189 9.10547 60.3357 10.3223C61.5662 11.5527 62.3181 12.7148 62.947 14.3418C63.4255 15.5723 63.9998 17.4316 64.1502 20.8359C64.3142 24.5273 64.3552 25.6348 64.3552 34.9727C64.3552 44.3242 64.3142 45.4316 64.1502 49.1094C63.9998 52.5273 63.4255 54.3731 62.947 55.6035C62.3181 57.2305 61.5525 58.4063 60.3357 59.6231C59.1052 60.8535 57.9431 61.6055 56.3162 62.2344C55.0857 62.7129 53.2263 63.2871 49.822 63.4375C46.1306 63.6016 45.0232 63.6426 35.6853 63.6426C26.3337 63.6426 25.2263 63.6016 21.5486 63.4375C18.1306 63.2871 16.2849 62.7129 15.0544 62.2344C13.4275 61.6055 12.2517 60.8398 11.0349 59.6231C9.80444 58.3926 9.05249 57.2305 8.42358 55.6035C7.94507 54.3731 7.37085 52.5137 7.22046 49.1094C7.0564 45.418 7.01538 44.3105 7.01538 34.9727C7.01538 25.6211 7.0564 24.5137 7.22046 20.8359C7.37085 17.418 7.94507 15.5723 8.42358 14.3418C9.05249 12.7148 9.81812 11.5391 11.0349 10.3223C12.2654 9.0918 13.4275 8.33984 15.0544 7.71094C16.2849 7.23242 18.1443 6.6582 21.5486 6.50781C25.2263 6.34375 26.3337 6.30273 35.6853 6.30273ZM35.6853 0C26.1834 0 24.9939 0.0410156 21.2615 0.205078C17.5427 0.369141 14.9861 0.970703 12.7712 1.83203C10.4607 2.73437 8.50562 3.92383 6.56421 5.87891C4.60913 7.82031 3.41968 9.77539 2.51733 12.0723C1.65601 14.3008 1.05444 16.8437 0.890381 20.5625C0.726318 24.3086 0.685303 25.498 0.685303 35C0.685303 44.502 0.726318 45.6914 0.890381 49.4238C1.05444 53.1426 1.65601 55.6992 2.51733 57.9141C3.41968 60.2246 4.60913 62.1797 6.56421 64.1211C8.50562 66.0625 10.4607 67.2656 12.7576 68.1543C14.9861 69.0156 17.5291 69.6172 21.2478 69.7812C24.9802 69.9453 26.1697 69.9863 35.6716 69.9863C45.1736 69.9863 46.363 69.9453 50.0955 69.7812C53.8142 69.6172 56.3709 69.0156 58.5857 68.1543C60.8826 67.2656 62.8376 66.0625 64.7791 64.1211C66.7205 62.1797 67.9236 60.2246 68.8123 57.9277C69.6736 55.6992 70.2752 53.1563 70.4392 49.4375C70.6033 45.7051 70.6443 44.5156 70.6443 35.0137C70.6443 25.5117 70.6033 24.3223 70.4392 20.5898C70.2752 16.8711 69.6736 14.3145 68.8123 12.0996C67.9509 9.77539 66.7615 7.82031 64.8064 5.87891C62.865 3.9375 60.9099 2.73438 58.613 1.8457C56.3845 0.984375 53.8416 0.382813 50.1228 0.21875C46.3767 0.0410156 45.1873 0 35.6853 0Z" fill="#000100"/>
<path d="M35.6854 17.0215C25.7596 17.0215 17.7068 25.0742 17.7068 35C17.7068 44.9258 25.7596 52.9785 35.6854 52.9785C45.6111 52.9785 53.6639 44.9258 53.6639 35C53.6639 25.0742 45.6111 17.0215 35.6854 17.0215ZM35.6854 46.6621C29.2459 46.6621 24.0233 41.4395 24.0233 35C24.0233 28.5605 29.2459 23.3379 35.6854 23.3379C42.1248 23.3379 47.3475 28.5605 47.3475 35C47.3475 41.4395 42.1248 46.6621 35.6854 46.6621Z" fill="#000100"/>
<path d="M58.572 16.3106C58.572 18.6348 56.6853 20.5079 54.3748 20.5079C52.0505 20.5079 50.1775 18.6211 50.1775 16.3106C50.1775 13.9864 52.0642 12.1133 54.3748 12.1133C56.6853 12.1133 58.572 14 58.572 16.3106Z" fill="#000100"/>
</svg>
