<svg width="71" height="70" viewBox="0 0 71 70" fill="none" xmlns="http://www.w3.org/2000/svg">
<g clip-path="url(#clip0_0_129)">
<path d="M35.6541 6.30273C45.0056 6.30273 46.113 6.34375 49.7908 6.50781C53.2087 6.6582 55.0544 7.23242 56.2849 7.71094C57.9119 8.33984 59.0876 9.10547 60.3044 10.3223C61.5349 11.5527 62.2869 12.7148 62.9158 14.3418C63.3943 15.5723 63.9685 17.4316 64.1189 20.8359C64.283 24.5273 64.324 25.6348 64.324 34.9727C64.324 44.3242 64.283 45.4316 64.1189 49.1094C63.9685 52.5273 63.3943 54.3731 62.9158 55.6035C62.2869 57.2305 61.5212 58.4063 60.3044 59.6231C59.074 60.8535 57.9119 61.6055 56.2849 62.2344C55.0544 62.7129 53.1951 63.2871 49.7908 63.4375C46.0994 63.6016 44.9919 63.6426 35.6541 63.6426C26.3025 63.6426 25.1951 63.6016 21.5173 63.4375C18.0994 63.2871 16.2537 62.7129 15.0232 62.2344C13.3962 61.6055 12.2205 60.8398 11.0037 59.6231C9.77319 58.3926 9.02124 57.2305 8.39233 55.6035C7.91382 54.3731 7.3396 52.5137 7.18921 49.1094C7.02515 45.418 6.98413 44.3105 6.98413 34.9727C6.98413 25.6211 7.02515 24.5137 7.18921 20.8359C7.3396 17.418 7.91382 15.5723 8.39233 14.3418C9.02124 12.7148 9.78687 11.5391 11.0037 10.3223C12.2341 9.0918 13.3962 8.33984 15.0232 7.71094C16.2537 7.23242 18.113 6.6582 21.5173 6.50781C25.1951 6.34375 26.3025 6.30273 35.6541 6.30273ZM35.6541 0C26.1521 0 24.9626 0.0410156 21.2302 0.205078C17.5115 0.369141 14.9548 0.970703 12.74 1.83203C10.4294 2.73437 8.47437 3.92383 6.53296 5.87891C4.57788 7.82031 3.38843 9.77539 2.48608 12.0723C1.62476 14.3008 1.02319 16.8437 0.859131 20.5625C0.695068 24.3086 0.654053 25.498 0.654053 35C0.654053 44.502 0.695068 45.6914 0.859131 49.4238C1.02319 53.1426 1.62476 55.6992 2.48608 57.9141C3.38843 60.2246 4.57788 62.1797 6.53296 64.1211C8.47437 66.0625 10.4294 67.2656 12.7263 68.1543C14.9548 69.0156 17.4978 69.6172 21.2166 69.7812C24.949 69.9453 26.1384 69.9863 35.6404 69.9863C45.1423 69.9863 46.3318 69.9453 50.0642 69.7812C53.783 69.6172 56.3396 69.0156 58.5545 68.1543C60.8513 67.2656 62.8064 66.0625 64.7478 64.1211C66.6892 62.1797 67.8923 60.2246 68.781 57.9277C69.6423 55.6992 70.2439 53.1563 70.408 49.4375C70.572 45.7051 70.613 44.5156 70.613 35.0137C70.613 25.5117 70.572 24.3223 70.408 20.5898C70.2439 16.8711 69.6423 14.3145 68.781 12.0996C67.9197 9.77539 66.7302 7.82031 64.7752 5.87891C62.8337 3.9375 60.8787 2.73438 58.5818 1.8457C56.3533 0.984375 53.8103 0.382813 50.0916 0.21875C46.3455 0.0410156 45.156 0 35.6541 0Z" fill="white"/>
<path d="M35.6541 17.0215C25.7283 17.0215 17.6756 25.0742 17.6756 35C17.6756 44.9258 25.7283 52.9785 35.6541 52.9785C45.5799 52.9785 53.6326 44.9258 53.6326 35C53.6326 25.0742 45.5799 17.0215 35.6541 17.0215ZM35.6541 46.6621C29.2147 46.6621 23.992 41.4395 23.992 35C23.992 28.5605 29.2147 23.3379 35.6541 23.3379C42.0936 23.3379 47.3162 28.5605 47.3162 35C47.3162 41.4395 42.0936 46.6621 35.6541 46.6621Z" fill="white"/>
<path d="M58.5408 16.3106C58.5408 18.6348 56.6541 20.5079 54.3435 20.5079C52.0193 20.5079 50.1462 18.6211 50.1462 16.3106C50.1462 13.9864 52.033 12.1133 54.3435 12.1133C56.6541 12.1133 58.5408 14 58.5408 16.3106Z" fill="white"/>
</g>
<defs>
<clipPath id="clip0_0_129">
<rect width="70" height="70" fill="white" transform="translate(0.654053)"/>
</clipPath>
</defs>
</svg>
