<svg width="26" height="26" viewBox="0 0 26 26" fill="none" xmlns="http://www.w3.org/2000/svg">
<path d="M22.3685 24.9906C23.7629 25.1164 25.0048 23.9631 24.9992 22.5819V18.9689C25.0139 18.3783 24.8105 17.8028 24.4278 17.3521C23.3486 16.0809 19.6473 15.2677 18.1801 15.58C17.0364 15.8234 16.2362 16.9718 15.454 17.7525C13.8229 16.8269 12.3434 15.6734 11.0568 14.3333M8.21359 10.5265C8.99587 9.74572 10.1465 8.94715 10.3904 7.8057C10.7028 6.3437 9.89084 2.66599 8.62842 1.58246C8.18438 1.20134 7.61663 0.994364 7.031 1.00012H3.41081C2.03143 1.00141 0.883833 2.2386 1.00942 3.62558C1.00108 14.2051 8.31002 22.7996 18.3333 24.6301M16.3333 5.66667C17.3161 5.85843 18.2918 6.2919 18.9999 7C19.708 7.7081 20.1415 8.68379 20.3333 9.66667M16.9999 1C19.042 1.22685 20.8795 2.21476 22.3333 3.66667C23.787 5.11857 24.7705 6.95825 24.9999 9" stroke="#4B4B4B" stroke-width="1.5" stroke-linecap="round" stroke-linejoin="round"/>
</svg>
