<svg width="150" height="49" viewBox="0 0 150 49" fill="none" xmlns="http://www.w3.org/2000/svg">
<path d="M20.5602 46.8837C17.2663 46.8837 14.3443 46.3701 11.7942 45.343C9.24413 44.3159 7.08362 42.8991 5.31272 41.0928C3.57723 39.2865 2.24905 37.1791 1.32818 34.7707C0.442726 32.3268 0 29.7059 0 26.9078C0 24.1452 0.460435 21.5597 1.38131 19.1513C2.3376 16.7074 3.70119 14.5823 5.4721 12.776C7.243 10.9697 9.40351 9.55297 11.9536 8.52585C14.5037 7.46331 17.3726 6.93204 20.5602 6.93204C22.0478 6.93204 23.553 7.07371 25.076 7.35705C26.599 7.6404 28.2105 8.10083 29.9106 8.73836L27.998 13.6261C26.4396 13.1656 25.1114 12.8469 24.0135 12.6698C22.9155 12.4927 21.7644 12.4041 20.5602 12.4041C18.4351 12.4041 16.5934 12.8292 15.035 13.6792C13.4766 14.4938 12.1838 15.5741 11.1567 16.9199C10.1296 18.2658 9.35038 19.8065 8.81911 21.542C8.32326 23.2775 8.07533 25.0661 8.07533 26.9078C8.07533 28.7496 8.32326 30.5382 8.81911 32.2737C9.35038 34.0092 10.1296 35.5676 11.1567 36.9489C12.1838 38.2948 13.4766 39.375 15.035 40.1896C16.5934 41.0043 18.4351 41.4116 20.5602 41.4116C22.9332 41.4116 25.3948 40.8095 27.9449 39.6052L29.9106 44.4398C28.3168 45.2544 26.723 45.8565 25.1292 46.2461C23.5708 46.6712 22.0478 46.8837 20.5602 46.8837Z" fill="white"/>
<path d="M99.4669 18.9919C99.4669 20.7628 99.1128 22.3566 98.4044 23.7733C97.7314 25.1547 96.8106 26.3589 95.6418 27.386C94.5084 28.3777 93.1979 29.1746 91.7104 29.7767C90.2582 30.3788 88.7352 30.7507 87.1414 30.8924C86.3268 30.9632 85.4768 30.9809 84.5913 30.9455C83.7059 30.8747 82.7673 30.6976 81.7756 30.4142C81.9881 29.9184 82.2183 29.4048 82.4662 28.8736C82.7496 28.3069 83.0683 27.7933 83.4225 27.3329C83.8121 26.8724 84.2371 26.4828 84.6976 26.1641C85.1934 25.8453 85.7424 25.6505 86.3445 25.5797C87.0883 25.5088 87.779 25.2963 88.4165 24.9421C89.054 24.5525 89.603 24.0744 90.0634 23.5077C90.5593 22.9056 90.9489 22.215 91.2322 21.4358C91.5156 20.6566 91.6572 19.8419 91.6572 18.9919C91.6572 18.071 91.4801 17.221 91.126 16.4418C90.7718 15.6272 90.2582 14.9188 89.5853 14.3167C88.9478 13.7146 88.1686 13.2365 87.2477 12.8823C86.3622 12.5281 85.3705 12.351 84.2726 12.351C83.7767 12.351 83.3517 12.3687 82.9975 12.4041C82.6787 12.4041 82.36 12.4218 82.0412 12.4573C81.7225 12.4573 81.386 12.4927 81.0318 12.5635C80.6776 12.5989 80.2703 12.6344 79.8099 12.6698V46.2461H72.1596V8.10083C73.5763 7.85291 74.8336 7.65811 75.9316 7.51643C77.0296 7.33934 78.0213 7.21538 78.9067 7.14454C79.8276 7.03829 80.713 6.96745 81.5631 6.93204C82.4131 6.89662 83.3163 6.87891 84.2726 6.87891C86.4331 6.87891 88.4342 7.16225 90.2759 7.72894C92.1177 8.29563 93.7115 9.11025 95.0574 10.1728C96.4387 11.1999 97.5189 12.4573 98.2981 13.9448C99.0773 15.4324 99.4669 17.1147 99.4669 18.9919Z" fill="white"/>
<path d="M133.605 18.7263C133.605 20.8514 133.127 22.6931 132.171 24.2515C131.215 25.8099 129.94 27.0672 128.346 28.0235L126.858 28.6079C127 28.6788 127.195 28.7673 127.443 28.8736C127.69 28.9798 127.885 29.0861 128.027 29.1923C129.089 30.1132 129.922 31.2112 130.524 32.4862C131.126 33.7258 131.64 35.0894 132.065 36.577C132.525 38.0291 132.968 39.5875 133.393 41.2522C133.853 42.8814 134.473 44.5461 135.252 46.2461H127.443C126.805 44.9003 126.291 43.4658 125.902 41.9428C125.548 40.3844 125.158 38.8792 124.733 37.427C124.308 35.9749 123.812 34.629 123.245 33.3894C122.679 32.1497 121.9 31.1403 120.908 30.3611C120.164 30.432 119.367 30.4497 118.517 30.4142C117.703 30.3434 116.835 30.1663 115.914 29.883C116.126 29.3871 116.357 28.8736 116.605 28.3423C116.888 27.7756 117.207 27.262 117.561 26.8016C117.95 26.3057 118.375 25.8984 118.836 25.5797C119.332 25.2609 119.881 25.0661 120.483 24.9953C121.227 24.9244 121.917 24.7296 122.555 24.4109C123.192 24.0567 123.741 23.614 124.202 23.0827C124.698 22.516 125.087 21.8608 125.371 21.117C125.654 20.3732 125.796 19.5763 125.796 18.7263C125.796 17.8054 125.601 16.9554 125.211 16.1762C124.822 15.397 124.29 14.724 123.617 14.1573C122.98 13.5906 122.201 13.1479 121.28 12.8292C120.394 12.5104 119.438 12.351 118.411 12.351C117.915 12.351 117.49 12.3687 117.136 12.4041C116.817 12.4041 116.498 12.4218 116.18 12.4573C115.861 12.4573 115.524 12.4927 115.17 12.5635C114.816 12.5989 114.409 12.6344 113.948 12.6698V46.2461H106.298V8.10083C107.715 7.85291 108.972 7.65811 110.07 7.51643C111.168 7.33934 112.16 7.21538 113.045 7.14454C113.966 7.03829 114.851 6.96745 115.701 6.93204C116.551 6.89662 117.455 6.87891 118.411 6.87891C120.501 6.87891 122.466 7.14454 124.308 7.67582C126.15 8.20709 127.761 8.98629 129.143 10.0134C130.524 11.0051 131.604 12.2448 132.383 13.7323C133.198 15.1845 133.605 16.8491 133.605 18.7263Z" fill="white"/>
<path d="M150 46.2461H142.615V7.62269H150V46.2461Z" fill="white"/>
<path d="M41.3097 37.7989L38.494 46.2461H31.003L44.8692 7.62269H52.307L66.1732 46.2461H58.3104L48.7475 17.5043L48.3225 15.5386L47.8443 17.6106L43.3285 31.3705L41.3097 37.7989Z" fill="white"/>
<path d="M38.3787 46.0729L59.2951 7.23008L36.7853 28.9399L38.3787 46.0729Z" fill="#FF3D00"/>
<path d="M25.1762 31.6962L59.2945 7.22916L36.7847 28.939L25.1762 31.6962Z" fill="#BF360C"/>
</svg>
